# xmcd
#
# Track frame offsets: 
#        225
#        17358
#        31225
#        51563
#        67830
#        86473
#        104133
#        119520
#        142321
#        163913
#
# Disc length: 2501 seconds
#
# Revision: 10
# Processed by: cddbd v1.5.2PL0 Copyright (c) Steve Scherf et al.
# Submitted via: ExactAudioCopy v1.1
#
DISCID=8e09c20a
DTITLE=Van Morrison - It's Too Late To Stop Now [CD 1)[Rmd 2008]
DYEAR=1974
DGENRE=Rock
TTITLE0=Ain't Nothin' You Can Do
TTITLE1=Warm Love
TTITLE2=Into The Mystic
TTITLE3=These Dreams of You
TTITLE4=I Believe To My Soul
TTITLE5=I've Been Working
TTITLE6=Help Me
TTITLE7=Wild Children
TTITLE8=Domino
TTITLE9=I Just Want To Make Love To You
EXTD=
EXTT0=
EXTT1=
EXTT2=
EXTT3=
EXTT4=
EXTT5=
EXTT6=
EXTT7=
EXTT8=
EXTT9=
PLAYORDER=
